<svg id="레이어_1" data-name="레이어 1" xmlns="http://www.w3.org/2000/svg" viewBox="0 0 1080 1080"><defs><style>.cls-1{fill:#3f3a3e;}.cls-2{fill:#fff;}</style></defs><rect class="cls-1" width="1080" height="1080" rx="92.51" transform="translate(1080) rotate(90)"/><rect class="cls-2" x="67.13" y="46.38" width="945.75" height="865.02" rx="78.34"/><path class="cls-1" d="M857,557.87c17.78,27.21,25.23,58.09,25.23,100.74,0,46.33-13.18,88.25-37.85,117.66-35,42.65-93.47,65.45-165.14,65.45-72.83,0-131.89-24.26-166.29-67.65-22.94-28.68-35-69.13-35-115.46,0-50.74,14.91-91.19,44.15-120.6,17.78-17.64,32.69-26.47,60.21-33.83-28.67-11.76-41.86-20.58-55.62-40.44-17.78-24.27-27.52-57.36-27.52-94.13,0-38.24,8-71.33,23.51-96.33,30.39-47.79,87.16-75,157.12-75,111.25,0,181.78,64.71,181.78,166.93,0,69.86-26.38,114.72-80.85,139C816.91,512.28,838.13,527,857,557.87Zm-260.9,88.24c0,47.8,31.54,76.48,83.72,76.48,53.33,0,83.72-28.68,83.72-78s-31-77.95-82.57-77.95C628.25,566.69,596.14,596.85,596.14,646.11Zm16.62-266.93c0,40.44,26.38,66.18,68.24,66.18,41.29,0,66.52-25,66.52-66.18,0-39.71-25.81-64.72-67.1-64.72S612.76,339.46,612.76,379.18Z"/><path class="cls-1" d="M452.63,557.87c17.78,27.21,25.23,58.09,25.23,100.74,0,46.33-13.18,88.25-37.85,117.66-35,42.65-93.47,65.45-165.14,65.45-72.83,0-131.89-24.26-166.29-67.65-22.94-28.68-35-69.13-35-115.46,0-50.74,14.91-91.19,44.15-120.6,17.78-17.64,32.69-26.47,60.21-33.83-28.67-11.76-41.86-20.58-55.62-40.44-17.78-24.27-27.52-57.36-27.52-94.13,0-38.24,8-71.33,23.51-96.33,30.39-47.79,87.16-75,157.12-75,111.25,0,181.78,64.71,181.78,166.93,0,69.86-26.38,114.72-80.85,139C412.5,512.28,433.71,527,452.63,557.87Zm-260.9,88.24c0,47.8,31.54,76.48,83.72,76.48,53.33,0,83.72-28.68,83.72-78s-31-77.95-82.57-77.95C223.84,566.69,191.73,596.85,191.73,646.11Zm16.62-266.93c0,40.44,26.38,66.18,68.24,66.18,41.29,0,66.52-25,66.52-66.18,0-39.71-25.81-64.72-67.1-64.72S208.35,339.46,208.35,379.18Z"/><circle class="cls-1" cx="940.48" cy="771.03" r="70.69"/></svg>