<svg id="레이어_1" data-name="레이어 1" xmlns="http://www.w3.org/2000/svg" viewBox="0 0 1025.14 854.34"><defs><style>.cls-1{fill:#fff;}</style></defs><rect x="112.83" y="57.43" width="854.34" height="1025.14" rx="92.51" transform="translate(1082.57 -112.83) rotate(90)"/><rect class="cls-1" x="63.72" y="18.16" width="897.7" height="702.81" rx="78.34"/><path d="M468.35,572.6c15.61,23.42,22.16,50,22.16,86.73,0,39.88-11.58,76-33.24,101.29-30.72,36.72-82.09,56.35-145,56.35-64,0-115.83-20.89-146-58.25C146,734,135.46,699.21,135.46,659.33c0-43.68,13.09-78.51,38.78-103.82,15.61-15.19,28.71-22.79,52.88-29.13-25.18-10.12-36.77-17.72-48.85-34.82-15.61-20.89-24.17-49.38-24.17-81,0-32.92,7.05-61.4,20.65-82.93,26.69-41.14,76.55-64.57,138-64.57,97.7,0,159.64,55.72,159.64,143.71,0,60.15-23.17,98.76-71,119.65C433.1,533.35,451.74,546,468.35,572.6Zm-246.27,76c0,41.15,27.7,65.84,73.52,65.84,46.84,0,73.53-24.69,73.53-67.11s-27.19-67.1-72.52-67.1C250.28,580.2,222.08,606.15,222.08,648.57Zm14.61-229.8c0,34.81,23.16,57,59.92,57,36.27,0,58.42-21.53,58.42-57,0-34.19-22.66-55.72-58.92-55.72S236.69,384.58,236.69,418.77Z" transform="translate(-27.43 -142.83)"/><path d="M823.4,572.6c15.61,23.42,22.16,50,22.16,86.73,0,39.88-11.58,76-33.25,101.29-30.72,36.72-82.08,56.35-145,56.35-64,0-115.83-20.89-146-58.25-20.15-24.69-30.73-59.51-30.73-99.39,0-43.68,13.09-78.51,38.78-103.82,15.61-15.19,28.7-22.79,52.87-29.13-25.18-10.12-36.76-17.72-48.84-34.82-15.62-20.89-24.18-49.38-24.18-81,0-32.92,7.06-61.4,20.66-82.93,26.69-41.14,76.54-64.57,138-64.57,97.7,0,159.64,55.72,159.64,143.71,0,60.15-23.16,98.76-71,119.65C788.15,533.35,806.78,546,823.4,572.6Zm-229.14,76c0,41.15,27.7,65.84,73.53,65.84,46.83,0,73.52-24.69,73.52-67.11s-27.19-67.1-72.51-67.1C622.46,580.2,594.26,606.15,594.26,648.57Zm14.6-229.8c0,34.81,23.17,57,59.93,57,36.26,0,58.42-21.53,58.42-57,0-34.19-22.67-55.72-58.93-55.72S608.86,384.58,608.86,418.77Z" transform="translate(-27.43 -142.83)"/><ellipse cx="866.86" cy="611.49" rx="50.24" ry="62.65"/></svg>