<?xml version="1.0" encoding="iso-8859-1"?>
<!-- Generator: Adobe Illustrator 24.0.1, SVG Export Plug-In . SVG Version: 6.00 Build 0)  -->
<svg version="1.1" id="&#xB808;&#xC774;&#xC5B4;_1" xmlns="http://www.w3.org/2000/svg" xmlns:xlink="http://www.w3.org/1999/xlink"
	 x="0px" y="0px" viewBox="0 0 40 40" style="enable-background:new 0 0 40 40;" xml:space="preserve">
<title>카카오톡</title>
<circle cx="20" cy="20" r="20"/>
<path style="fill:#FFFFFF;" d="M14.11,28.15c-0.126,0-0.25-0.048-0.345-0.138c-0.142-0.136-0.192-0.341-0.128-0.525l0.858-2.48
	C11.985,23.649,10.5,21.468,10.5,19.1c0-4.065,4.173-7.25,9.5-7.25c5.305,0,9.46,3.185,9.46,7.25c0,4.065-4.173,7.25-9.5,7.25
	c-0.375-0.003-0.748-0.022-1.119-0.06l-4.545,1.824C14.236,28.139,14.173,28.15,14.11,28.15z M20,12.85c-4.687,0-8.5,2.804-8.5,6.25
	c0,2.097,1.431,4.045,3.829,5.21c0.228,0.11,0.336,0.373,0.254,0.612l-0.642,1.855l3.644-1.462c0.076-0.031,0.159-0.043,0.24-0.033
	c0.378,0.041,0.759,0.063,1.14,0.066c4.683,0,8.496-2.804,8.496-6.25C28.46,15.654,24.665,12.85,20,12.85z"/>
<path style="fill:#FFFFFF;" d="M16.26,17.81h-0.79v2.6c0.007,0.118-0.029,0.235-0.1,0.33c-0.068,0.071-0.162,0.11-0.26,0.11
	c-0.099,0.004-0.194-0.036-0.26-0.11c-0.079-0.091-0.119-0.21-0.11-0.33v-2.6H14c-0.097,0.006-0.192-0.022-0.27-0.08
	c-0.06-0.057-0.093-0.137-0.09-0.22c-0.004-0.083,0.029-0.164,0.09-0.22c0.078-0.058,0.173-0.086,0.27-0.08h2.31
	c0.1-0.006,0.198,0.022,0.28,0.08c0.122,0.121,0.122,0.317,0.002,0.438c-0.001,0.001-0.001,0.001-0.002,0.002
	C16.494,17.797,16.376,17.825,16.26,17.81z"/>
<path style="fill:#FFFFFF;" d="M19,20.38l-0.17-0.44h-1.42l-0.17,0.45c-0.046,0.13-0.106,0.254-0.18,0.37
	c-0.057,0.067-0.143,0.101-0.23,0.09c-0.09,0.001-0.177-0.035-0.24-0.1c-0.065-0.058-0.102-0.142-0.1-0.23
	c-0.009-0.05-0.009-0.1,0-0.15c0-0.05,0-0.12,0.08-0.21l0.92-2.33c0.024-0.082,0.055-0.162,0.09-0.24
	c0.034-0.08,0.074-0.157,0.12-0.23c0.04-0.062,0.095-0.114,0.16-0.15c0.077-0.042,0.163-0.063,0.25-0.06
	c0.087-0.004,0.174,0.017,0.25,0.06c0.067,0.033,0.125,0.081,0.17,0.14c0.037,0.065,0.071,0.131,0.1,0.2c0,0.07,0.07,0.16,0.11,0.28
	l0.94,2.31c0.058,0.12,0.095,0.248,0.11,0.38c-0.016,0.187-0.172,0.331-0.36,0.33c-0.046,0.01-0.094,0.01-0.14,0l-0.11-0.08
	l-0.09-0.16C19.065,20.532,19.035,20.455,19,20.38z M17.57,19.38h1.07L18.1,17.9L17.57,19.38z"/>
<path style="fill:#FFFFFF;" d="M21.05,17.59v2.6h1.47c0.098-0.007,0.196,0.025,0.27,0.09c0.06,0.057,0.093,0.137,0.09,0.22
	c0,0.079-0.033,0.155-0.09,0.21c-0.078,0.058-0.173,0.086-0.27,0.08h-1.75c-0.124,0.011-0.246-0.029-0.34-0.11
	c-0.08-0.09-0.12-0.21-0.11-0.33v-2.76c-0.007-0.118,0.029-0.235,0.1-0.33c0.068-0.071,0.162-0.11,0.26-0.11
	c0.101-0.002,0.199,0.038,0.27,0.11C21.026,17.352,21.062,17.471,21.05,17.59z"/>
<path style="fill:#FFFFFF;" d="M24.05,17.555v1.152l1.34-1.364l0.17-0.147c0.054-0.033,0.116-0.049,0.179-0.046
	c0.087-0.004,0.171,0.026,0.236,0.083c0.061,0.05,0.096,0.125,0.094,0.203c-0.009,0.116-0.067,0.223-0.16,0.295l-0.83,0.765
	l0.943,1.345c0.066,0.092,0.113,0.175,0.151,0.24c0.033,0.066,0.05,0.139,0.047,0.212c0,0.07-0.031,0.137-0.085,0.184
	c-0.067,0.058-0.156,0.088-0.245,0.083c-0.079,0.004-0.158-0.016-0.226-0.055c-0.065-0.041-0.117-0.098-0.151-0.166
	c-0.042-0.055-0.08-0.114-0.113-0.175l-0.811-1.216l-0.557,0.525v0.682c0.011,0.11-0.023,0.219-0.094,0.304
	c-0.067,0.066-0.159,0.103-0.255,0.101c-0.059-0.002-0.118-0.018-0.17-0.046c-0.052-0.028-0.094-0.069-0.123-0.12
	c-0.005-0.049-0.005-0.098,0-0.147c0-0.055,0-0.138,0-0.24v-2.451c-0.006-0.109,0.027-0.217,0.094-0.304
	c0.062-0.068,0.152-0.105,0.245-0.101c0.096-0.002,0.188,0.035,0.255,0.101C24.046,17.34,24.069,17.45,24.05,17.555z"/>
</svg>
