<svg id="레이어_1" data-name="레이어 1" xmlns="http://www.w3.org/2000/svg" viewBox="0 0 51.12 105.38"><defs><style>.cls-1{fill:#231815;}</style></defs><title>낭만</title><path class="cls-1" d="M43.16,35.65a52.92,52.92,0,0,0-8.64-6.89l4.56-5.4a55.57,55.57,0,0,1,9,6.23Zm6.26,5.46c-2,6-4.29,12-6.68,17.65l-7.05-4.58a158,158,0,0,0,7.42-17.7Zm-4.93-19a47.73,47.73,0,0,0-7.21-7.56l5.2-4.85a53.56,53.56,0,0,1,7.52,7Zm39,22.17a69.54,69.54,0,0,1-6.52,4.41,21.7,21.7,0,0,0,8.54,4.19,27.28,27.28,0,0,0-4.83,7C71,56.44,66.18,49.55,63.1,39.18h-5V49.94l8.17-2.27a42.43,42.43,0,0,0,1.17,6.95c-12.09,3.81-14.43,4.8-15.91,5.9a23.17,23.17,0,0,0-4-5.79,8.69,8.69,0,0,0,2.81-6.56V13.48H62.41c-.47-1.48-1-3.08-1.54-4.41L68,7.31a53.42,53.42,0,0,1,2.39,6.17h11v25.7H78.85ZM58.06,20.32V23H73.87v-2.7Zm0,12H73.87v-2.7H58.06Zm12.36,6.84a29.86,29.86,0,0,0,2.17,4.47,50.58,50.58,0,0,0,5.84-4.47Z" transform="translate(-34.44 -7.31)"/><path class="cls-1" d="M44,88.59c-2-2.2-6.36-5.4-9.6-7.55L39,75.58a67.32,67.32,0,0,1,9.92,6.89Zm6.73,6.18c-2.59,5.68-5.56,11.52-8.53,16.93l-6.63-5.24A160.31,160.31,0,0,0,45,89.59Zm-3.6-20.46c-2-2.21-6.58-5.4-10-7.5l4.56-5.51a59.22,59.22,0,0,1,10.29,6.89Zm36,20A27,27,0,0,1,75.06,104a62.75,62.75,0,0,0,10.5,1.87A31.14,31.14,0,0,0,81,112.69a50.67,50.67,0,0,1-14.32-4,69.63,69.63,0,0,1-14.85,4,29.11,29.11,0,0,0-3.39-6.73,67.69,67.69,0,0,0,10.66-2,31.38,31.38,0,0,1-5.41-5.68H50.93V92.07H77l1.27-.28ZM51.62,78.56H83.33V90.63H51.62ZM81,77H54.54V61.57H81ZM58.09,86h2.33V83.24H58.09ZM73.42,66H61.75V67.2H73.42Zm0,5.35H61.75V72.6H73.42ZM62.86,98.24A25.75,25.75,0,0,0,67,101a25.75,25.75,0,0,0,4.14-2.71ZM66.1,86h2.33V83.24H66.1Zm8,0h2.39V83.24H74.1Z" transform="translate(-34.44 -7.31)"/></svg>