<svg id="레이어_1" data-name="레이어 1" xmlns="http://www.w3.org/2000/svg" viewBox="0 0 1082.15 1084.53"><defs><style>.cls-1{fill:#fff;}</style></defs><rect width="1082.15" height="1084.53"/><path class="cls-1" d="M540,770c-141.27,0-274.29-34.56-374.53-97.31C63.2,608.71,6.88,522.91,6.88,431.13S63.2,253.55,165.47,189.53C265.71,126.78,398.73,92.22,540,92.22s274.28,34.56,374.53,97.31c102.27,64,158.59,149.82,158.59,241.6s-56.32,177.58-158.59,241.6C814.28,735.48,681.27,770,540,770Zm0-650.43c-136.28,0-264.2,33.1-360.2,93.2-94,58.83-145.75,136.36-145.75,218.32S85.81,590.62,179.8,649.46c96,60.09,223.92,93.19,360.2,93.19s264.2-33.1,360.2-93.19c94-58.84,145.75-136.37,145.75-218.33S994.19,271.64,900.2,212.81C804.2,152.71,676.27,119.61,540,119.61Z" transform="translate(2.15 4.53)"/><path class="cls-1" d="M529.61,657.4c4.13,5,5.86,10.61,5.86,18.39,0,8.46-3.06,16.11-8.79,21.48-8.12,7.78-21.7,12-38.35,12-16.91,0-30.62-4.43-38.61-12.35-5.33-5.24-8.13-12.62-8.13-21.08,0-9.26,3.47-16.65,10.26-22,4.12-3.23,7.59-4.84,14-6.18-6.66-2.15-9.72-3.76-12.92-7.38A24.87,24.87,0,0,1,446.52,623c0-7,1.87-13,5.46-17.58,7.06-8.73,20.24-13.69,36.49-13.69,25.83,0,42.21,11.81,42.21,30.47,0,12.75-6.13,20.94-18.78,25.37C520.29,649.08,525.22,651.76,529.61,657.4ZM469,673.51c0,8.72,7.32,14,19.44,14,12.38,0,19.44-5.24,19.44-14.23S500.72,659,488.73,659C476.48,659,469,664.52,469,673.51Zm3.86-48.73c0,7.38,6.12,12.08,15.84,12.08s15.45-4.56,15.45-12.08c0-7.25-6-11.81-15.58-11.81S472.89,617.53,472.89,624.78Z" transform="translate(2.15 4.53)"/><path class="cls-1" d="M632.55,657.4c4.12,5,5.86,10.61,5.86,18.39,0,8.46-3.07,16.11-8.79,21.48-8.13,7.78-21.71,12-38.35,12-16.91,0-30.63-4.43-38.62-12.35-5.32-5.24-8.12-12.62-8.12-21.08,0-9.26,3.46-16.65,10.25-22,4.13-3.23,7.59-4.84,14-6.18-6.65-2.15-9.72-3.76-12.91-7.38A24.87,24.87,0,0,1,549.46,623c0-7,1.86-13,5.46-17.58,7.05-8.73,20.24-13.69,36.48-13.69,25.83,0,42.21,11.81,42.21,30.47,0,12.75-6.12,20.94-18.77,25.37C623.23,649.08,628.15,651.76,632.55,657.4ZM572,673.51c0,8.72,7.33,14,19.44,14,12.39,0,19.44-5.24,19.44-14.23S603.65,659,591.67,659C579.42,659,572,664.52,572,673.51Zm3.86-48.73c0,7.38,6.13,12.08,15.85,12.08s15.44-4.56,15.44-12.08c0-7.25-6-11.81-15.58-11.81S575.82,617.53,575.82,624.78Z" transform="translate(2.15 4.53)"/><path class="cls-1" d="M776,918.32,691.41,787.56H654.12V939.11L608.19,787.56H553.34L507.41,939.11V787.56h-33L410.13,917.77,345.82,787.56h-33v45.88c-.21-.44-.39-.9-.61-1.34a84,84,0,0,0-32.76-35.89q-21.36-12.74-50.13-12.73t-50.12,12.73a83.41,83.41,0,0,0-31.05,32.7,69.61,69.61,0,0,0-2.32-6.75A52.67,52.67,0,0,0,129.25,800Q118,791.24,101,788.65a105.89,105.89,0,0,0-16.21-1.09H2.66V983.69H39.41V917.23h41l32,66.46H154L118.81,911a51.63,51.63,0,0,0,10.31-6.21,53.88,53.88,0,0,0,6.53-6.07q2,22.41,10.83,40.47A83.91,83.91,0,0,0,179.24,975q21.34,12.75,50.13,12.74T279.49,975a83.91,83.91,0,0,0,32.76-35.88c.22-.44.4-.9.61-1.34V983.7h34.31V866.56L403.65,983.7h13l56.47-117.14V983.7h58.63L544,942.83H617.3l12.51,40.87h61.6V852.94L776,983.7h37.29V787.56H776V918.32ZM39.41,822.16H83.18a46.12,46.12,0,0,1,12.43,1.36,22.35,22.35,0,0,1,11.08,6.61,27,27,0,0,1,5.88,10.48,41.94,41.94,0,0,1,0,23.57,27,27,0,0,1-5.88,10.48,22.35,22.35,0,0,1-11.08,6.61,46.12,46.12,0,0,1-12.43,1.36H39.41V822.16Zm239.13,99.36q-6.21,15.18-18.64,23.42t-30.53,8q-18.24-.27-30.61-8.44t-18.57-23.23q-6.23-15-6.22-35.61t6.22-35.89q6.21-15.19,18.64-23.43t30.54-8q18.24.28,30.6,8.45T278.54,850q6.21,15,6.22,35.62T278.54,921.52Zm275.93-13.28,25.92-86,26.31,86Z" transform="translate(2.15 4.53)"/><path class="cls-1" d="M1070.49,895.44A54.41,54.41,0,0,0,1057.73,879a69.35,69.35,0,0,0,5.33-6.83,52.44,52.44,0,0,0,6.78-14.07,54.64,54.64,0,0,0,2.28-16.11q0-16.17-7.69-28.53A51.36,51.36,0,0,0,1043,794.33q-13.76-6.76-31.36-6.77t-31.37,6.77a51.4,51.4,0,0,0-21.45,19.13Q951.1,825.82,951.1,842a52.9,52.9,0,0,0,2.34,16A54,54,0,0,0,960.29,872a76.27,76.27,0,0,0,5.46,7.07,56.84,56.84,0,0,0-12.83,16.54,60.22,60.22,0,0,0-6.43,21.81,61.61,61.61,0,0,0-6.5-22A54.28,54.28,0,0,0,927.22,879a67.87,67.87,0,0,0,5.33-6.83,52.48,52.48,0,0,0,6.79-14.07A54.64,54.64,0,0,0,941.62,842q0-16.17-7.7-28.53a51.33,51.33,0,0,0-21.45-19.13q-13.76-6.76-31.36-6.77t-31.37,6.77a51.34,51.34,0,0,0-21.45,19.13q-7.69,12.36-7.7,28.53a52.64,52.64,0,0,0,2.35,16A54,54,0,0,0,829.78,872a76.41,76.41,0,0,0,5.47,7.07,56.8,56.8,0,0,0-12.83,16.53,61,61,0,0,0-6.79,28.4,59,59,0,0,0,8.42,31.23A58.35,58.35,0,0,0,847.39,977q14.94,7.81,33.72,7.82T914.88,977a58.74,58.74,0,0,0,23.48-21.7,57.42,57.42,0,0,0,8.13-24.68,57.6,57.6,0,0,0,8.06,24.68A58.38,58.38,0,0,0,977.9,977q14.93,7.81,33.71,7.82t33.78-7.82A58.25,58.25,0,0,0,1077.34,924,61.7,61.7,0,0,0,1070.49,895.44ZM864.34,826.28q6.2-5.32,16.76-5.32t16.76,5.32q6.2,5.33,6.2,15.71t-6.2,15.52q-6.2,5.26-16.76,5.26t-16.76-5.26q-6.2-5.25-6.19-15.52T864.34,826.28ZM905.75,938.9A22.65,22.65,0,0,1,895.9,948a33.33,33.33,0,0,1-14.8,3.09A33,33,0,0,1,866.36,948a22.31,22.31,0,0,1-9.71-9.13q-3.46-6.06-3.46-14.86a29.52,29.52,0,0,1,3.46-14.79,22.91,22.91,0,0,1,9.78-9.34,32,32,0,0,1,14.67-3.22,32.43,32.43,0,0,1,14.74,3.22,23.28,23.28,0,0,1,9.91,9.34A29.12,29.12,0,0,1,909.27,924Q909.27,932.85,905.75,938.9Zm89.1-112.62q6.2-5.32,16.76-5.32t16.76,5.32q6.2,5.33,6.19,15.71t-6.19,15.52q-6.19,5.26-16.76,5.26t-16.76-5.26q-6.2-5.25-6.2-15.52T994.85,826.28Zm41.41,112.62a22.65,22.65,0,0,1-9.85,9.13,33.36,33.36,0,0,1-14.8,3.09A32.91,32.91,0,0,1,996.87,948a22.39,22.39,0,0,1-9.72-9.13q-3.45-6.06-3.45-14.86a29.63,29.63,0,0,1,3.45-14.79,23,23,0,0,1,9.78-9.34,32,32,0,0,1,14.68-3.22,32.39,32.39,0,0,1,14.73,3.22,23.31,23.31,0,0,1,9.92,9.34,29.22,29.22,0,0,1,3.52,14.79Q1039.78,932.85,1036.26,938.9Z" transform="translate(2.15 4.53)"/><path class="cls-1" d="M239.18,395.91c-12.12-13.33-39.67-33.33-59.87-46.29l31.59-36.29C230.73,324.44,259,342.22,273,355.18Zm43.34,36.66c-13.59,40-29.75,80.73-46.28,118.5l-48.85-30.74c15.06-28.88,35.63-74.8,51.42-118.86ZM248.37,304.82c-9.92-14.45-32.33-35.92-50-50.73l36-32.59c17.26,13.33,41.14,33.33,52.16,47Zm270,148.86c-13.59,10.37-30.12,20.73-45.18,29.62,15.79,12.59,35.26,22.22,59.13,28.15-11.75,10.73-26.44,32.21-33.42,46.65-67.22-22.58-100.28-68.87-121.58-138.49H342.4v72.21L399,476.64c1.1,14.44,4.78,35.18,8.08,46.66-83.75,25.55-99.91,32.21-110.19,39.62-4.78-11.11-19.1-31.11-27.55-38.88,9.18-7.78,19.47-23,19.47-44.07V247.05h83.74c-3.3-10-7-20.74-10.65-29.62l49.59-11.85c5.87,12.59,12.49,28.51,16.53,41.47h76V419.61H486.38ZM342.4,293v18.14H451.85V293Zm0,80.72H451.85V355.55H342.4ZM428,419.61a190.24,190.24,0,0,0,15.06,30,359.8,359.8,0,0,0,40.4-30Z" transform="translate(2.15 4.53)"/><path class="cls-1" d="M613.08,400.36c-13.59-14.82-44.07-36.3-66.48-50.74L578.19,313c22,12.59,53.26,32.22,68.69,46.29Zm46.65,41.47c-18,38.14-38.57,77.39-59.13,113.68l-45.92-35.18c18.37-27,44.08-71.09,65-113.31Zm-25-137.38c-14-14.82-45.55-36.29-69.06-50.36l31.59-37c23.14,12.23,55.46,31.85,71.26,46.29Zm249,134.41C870.2,465.53,851.1,486.63,828,503.67c22,5.92,46.28,10,72.73,12.59-11,10.74-24.61,32.21-31.59,45.92-37.47-5.19-70.52-14.08-99.17-27-30.86,12.22-65.75,20.74-102.85,26.67-4.41-13-15.06-34.07-23.51-45.18,26.08-3,51.06-7,73.83-13.33a215.83,215.83,0,0,1-37.46-38.14h-19.1V423.68H841.19l8.81-1.85ZM665.61,333H885.26v81.1H665.61ZM869.1,322.59H685.81V218.91H869.1Zm-158.68,60h16.17V364.44H710.42Zm106.16-134H735.77v8.15h80.81Zm0,35.92H735.77V293h80.81Zm-73.1,180.71a181.51,181.51,0,0,0,28.65,18.14,181.51,181.51,0,0,0,28.65-18.14Zm22.41-82.58h16.16V364.44H765.89Zm55.46,0h16.53V364.44H821.35Z" transform="translate(2.15 4.53)"/></svg>