<svg id="레이어_1" data-name="레이어 1" xmlns="http://www.w3.org/2000/svg" viewBox="0 0 1080 1080"><defs><style>.cls-1{fill:#fff;}</style></defs><rect width="1080" height="1080" rx="92.51" transform="translate(1080) rotate(90)"/><rect class="cls-1" x="67.13" y="46.38" width="945.75" height="865.02" rx="78.34"/><path d="M511.23,583.18c20.27,31,28.77,66.25,28.77,114.88,0,52.83-15,100.64-43.16,134.18C457,880.87,390.25,906.88,308.52,906.88c-83,0-150.41-27.68-189.64-77.16C92.73,797,79,750.89,79,698.06c0-57.86,17-104,50.35-137.52C149.61,540.42,166.61,530.35,198,522c-32.69-13.42-47.73-23.48-63.42-46.13-20.27-27.67-31.39-65.41-31.39-107.33,0-43.61,9.16-81.34,26.82-109.85,34.66-54.51,99.39-85.54,179.17-85.54,126.86,0,207.29,73.8,207.29,190.36,0,79.67-30.08,130.82-92.2,158.49C465.45,531.19,489.66,548,511.23,583.18ZM191.45,683.81c0,54.51,36,87.21,95.47,87.21,60.82,0,95.48-32.7,95.48-88.88s-35.31-88.89-94.17-88.89C228.07,593.25,191.45,627.63,191.45,683.81Zm19-304.4c0,46.12,30.08,75.48,77.81,75.48,47.09,0,75.85-28.51,75.85-75.48,0-45.28-29.42-73.8-76.5-73.8S210.42,334.12,210.42,379.41Z"/><path d="M972.24,583.18c20.27,31,28.77,66.25,28.77,114.88,0,52.83-15,100.64-43.16,134.18C918,880.87,851.26,906.88,769.53,906.88c-83,0-150.4-27.68-189.63-77.16C553.74,797,540,750.89,540,698.06c0-57.86,17-104,50.35-137.52C610.62,540.42,627.62,530.35,659,522c-32.7-13.42-47.74-23.48-63.43-46.13-20.27-27.67-31.39-65.41-31.39-107.33,0-43.61,9.16-81.34,26.82-109.85,34.66-54.51,99.39-85.54,179.17-85.54,126.86,0,207.29,73.8,207.29,190.36,0,79.67-30.08,130.82-92.2,158.49C926.47,531.19,950.67,548,972.24,583.18ZM674.72,683.81c0,54.51,36,87.21,95.47,87.21,60.81,0,95.47-32.7,95.47-88.88s-35.31-88.89-94.16-88.89C711.34,593.25,674.72,627.63,674.72,683.81Zm19-304.4c0,46.12,30.08,75.48,77.81,75.48,47.09,0,75.85-28.51,75.85-75.48,0-45.28-29.42-73.8-76.51-73.8S693.68,334.12,693.68,379.41Z"/></svg>