<svg id="레이어_1" data-name="레이어 1" xmlns="http://www.w3.org/2000/svg" viewBox="0 0 32.1 22.02"><title>watermark3</title><path d="M16.32,19.05a6.88,6.88,0,0,0,.6-.76,5.78,5.78,0,0,0,.75-1.54A6,6,0,0,0,17.92,15a5.75,5.75,0,0,0-.85-3.14,5.68,5.68,0,0,0-2.38-2.11A7.94,7.94,0,0,0,11.21,9a7.94,7.94,0,0,0-3.48.74,5.68,5.68,0,0,0-2.38,2.11A5.75,5.75,0,0,0,4.5,15a5.69,5.69,0,0,0,1,3.3,8.3,8.3,0,0,0,.61.78A6.2,6.2,0,0,0,4.7,20.88,6.65,6.65,0,0,0,4,24a6.39,6.39,0,0,0,3.52,5.82,8,8,0,0,0,3.74.86A8.09,8.09,0,0,0,15,29.82a6.46,6.46,0,0,0,2.6-2.39A6.36,6.36,0,0,0,18.5,24a6.72,6.72,0,0,0-.76-3.15A5.87,5.87,0,0,0,16.32,19.05Zm-7-5.8a2.78,2.78,0,0,1,1.86-.59,2.78,2.78,0,0,1,1.86.59A2.13,2.13,0,0,1,13.76,15a2.08,2.08,0,0,1-.69,1.7,2.78,2.78,0,0,1-1.86.58,2.78,2.78,0,0,1-1.86-.58A2.08,2.08,0,0,1,8.67,15,2.13,2.13,0,0,1,9.35,13.25Zm4.59,12.38a2.48,2.48,0,0,1-1.09,1,3.67,3.67,0,0,1-1.64.34,3.6,3.6,0,0,1-1.63-.34,2.4,2.4,0,0,1-1.08-1A3.15,3.15,0,0,1,8.12,24a3.2,3.2,0,0,1,.38-1.63,2.48,2.48,0,0,1,1.08-1A3.53,3.53,0,0,1,11.21,21a3.6,3.6,0,0,1,1.64.36,2.5,2.5,0,0,1,1.09,1A3.2,3.2,0,0,1,14.33,24,3.15,3.15,0,0,1,13.94,25.63Z" transform="translate(-3.95 -8.99)"/><path d="M33.05,24a6.72,6.72,0,0,0-.76-3.15,5.87,5.87,0,0,0-1.42-1.8,8.32,8.32,0,0,0,.6-.76,5.78,5.78,0,0,0,.75-1.54A6,6,0,0,0,32.47,15a5.75,5.75,0,0,0-.85-3.14,5.68,5.68,0,0,0-2.38-2.11A7.94,7.94,0,0,0,25.76,9a7.94,7.94,0,0,0-3.48.74A5.61,5.61,0,0,0,19.05,15a5.69,5.69,0,0,0,1,3.3,8.3,8.3,0,0,0,.61.78,6,6,0,0,0-1.43,1.82A6.65,6.65,0,0,0,18.5,24,6.39,6.39,0,0,0,22,29.82a8.58,8.58,0,0,0,7.49,0,6.46,6.46,0,0,0,2.6-2.39A6.36,6.36,0,0,0,33.05,24ZM23.9,13.25a2.78,2.78,0,0,1,1.86-.59,2.78,2.78,0,0,1,1.86.59A2.13,2.13,0,0,1,28.31,15a2.08,2.08,0,0,1-.69,1.7,2.78,2.78,0,0,1-1.86.58,2.78,2.78,0,0,1-1.86-.58,2.08,2.08,0,0,1-.69-1.7A2.13,2.13,0,0,1,23.9,13.25Zm4.59,12.38a2.48,2.48,0,0,1-1.09,1,3.67,3.67,0,0,1-1.64.34,3.6,3.6,0,0,1-1.63-.34,2.4,2.4,0,0,1-1.08-1A3.15,3.15,0,0,1,22.66,24a3.2,3.2,0,0,1,.39-1.63,2.48,2.48,0,0,1,1.08-1,3.87,3.87,0,0,1,3.26,0,2.47,2.47,0,0,1,1.1,1A3.2,3.2,0,0,1,28.88,24,3.15,3.15,0,0,1,28.49,25.63Z" transform="translate(-3.95 -8.99)"/><circle cx="30.1" cy="20.02" r="2"/></svg>