<svg id="레이어_1" data-name="레이어 1" xmlns="http://www.w3.org/2000/svg" viewBox="0 0 71.48 105.38"><title>watermark</title><path d="M33,35.65a52.92,52.92,0,0,0-8.64-6.89l4.56-5.4a55.13,55.13,0,0,1,9,6.23Zm6.26,5.46c-2,6-4.29,12-6.68,17.65l-7-4.58a158,158,0,0,0,7.42-17.7Zm-4.93-19a47.73,47.73,0,0,0-7.21-7.56l5.2-4.85a53.56,53.56,0,0,1,7.52,7Zm39,22.17a69.54,69.54,0,0,1-6.52,4.41,21.7,21.7,0,0,0,8.54,4.19,27.28,27.28,0,0,0-4.83,7C60.77,56.44,56,49.55,52.92,39.18h-5V49.94l8.17-2.27a42.43,42.43,0,0,0,1.17,6.95c-12.09,3.81-14.43,4.8-15.91,5.9a23.17,23.17,0,0,0-4-5.79,8.69,8.69,0,0,0,2.81-6.56V13.48H52.23c-.47-1.48-1-3.08-1.53-4.41l7.15-1.76a53.42,53.42,0,0,1,2.39,6.17h11v25.7H68.67ZM47.88,20.32V23H63.69v-2.7Zm0,12H63.69v-2.7H47.88Zm12.36,6.84a29.86,29.86,0,0,0,2.17,4.47,50.58,50.58,0,0,0,5.84-4.47Z" transform="translate(-24.26 -7.31)"/><path d="M33.86,88.59c-2-2.2-6.36-5.4-9.6-7.55l4.56-5.46a67.32,67.32,0,0,1,9.92,6.89Zm6.73,6.18C38,100.45,35,106.29,32.06,111.7l-6.63-5.24a160.31,160.31,0,0,0,9.38-16.87ZM37,74.31c-2-2.21-6.58-5.4-10-7.5l4.56-5.51a59.22,59.22,0,0,1,10.29,6.89Zm35.95,20A27,27,0,0,1,64.88,104a62.75,62.75,0,0,0,10.5,1.87,31.14,31.14,0,0,0-4.56,6.84,50.67,50.67,0,0,1-14.32-4,69.63,69.63,0,0,1-14.85,4,29.11,29.11,0,0,0-3.39-6.73,67.69,67.69,0,0,0,10.66-2,31.38,31.38,0,0,1-5.41-5.68H40.75V92.07h26l1.27-.28ZM41.44,78.56H73.15V90.63H41.44ZM70.82,77H44.36V61.57H70.82ZM47.91,86h2.33V83.24H47.91ZM63.24,66H51.57V67.2H63.24Zm0,5.35H51.57V72.6H63.24ZM52.68,98.24A25.75,25.75,0,0,0,56.82,101,25.75,25.75,0,0,0,61,98.24ZM55.92,86h2.33V83.24H55.92Zm8,0h2.38V83.24H63.93Z" transform="translate(-24.26 -7.31)"/><path d="M75.85,92.46a7.23,7.23,0,0,1,.77-3.36,5.73,5.73,0,0,1,2.15-2.32A5.86,5.86,0,0,1,81.88,86a6,6,0,0,1,3,.73A5.57,5.57,0,0,1,87,88.81l-1-.07a6.41,6.41,0,0,1,1.23-1.26,5.28,5.28,0,0,1,1.46-.78,5.49,5.49,0,0,1,1.69-.26,5.06,5.06,0,0,1,4.73,2.9,7.6,7.6,0,0,1,0,6.24,5,5,0,0,1-4.73,2.91,5.39,5.39,0,0,1-1.69-.26,4.87,4.87,0,0,1-1.46-.77,7,7,0,0,1-1.26-1.29l1,0a5.38,5.38,0,0,1-2.12,2.11,6.1,6.1,0,0,1-3,.74,5.87,5.87,0,0,1-3.11-.84,5.76,5.76,0,0,1-2.15-2.33A7.27,7.27,0,0,1,75.85,92.46Zm3,0a3.76,3.76,0,0,0,.35,1.66,2.69,2.69,0,0,0,1,1.11,3.19,3.19,0,0,0,1.64.39,3.31,3.31,0,0,0,1.66-.39,2.59,2.59,0,0,0,1-1.12,4.06,4.06,0,0,0,0-3.3,2.49,2.49,0,0,0-1-1.1,3.31,3.31,0,0,0-1.66-.38,3.19,3.19,0,0,0-1.64.38,2.55,2.55,0,0,0-1,1.1A3.71,3.71,0,0,0,78.86,92.46Zm9.1,0a2.86,2.86,0,0,0,.61,1.93,2.17,2.17,0,0,0,1.77.72,2.21,2.21,0,0,0,1.79-.72,3.4,3.4,0,0,0,0-3.86,2.24,2.24,0,0,0-1.79-.71,2.2,2.2,0,0,0-1.77.71A2.86,2.86,0,0,0,88,92.46Z" transform="translate(-24.26 -7.31)"/><path d="M75.85,105.51a7.22,7.22,0,0,1,.77-3.35,5.73,5.73,0,0,1,2.15-2.32A5.87,5.87,0,0,1,81.88,99a6,6,0,0,1,3,.74A5.57,5.57,0,0,1,87,101.87l-1-.07a6.41,6.41,0,0,1,1.23-1.26,5.28,5.28,0,0,1,1.46-.78,5.16,5.16,0,0,1,6.42,2.64,7.07,7.07,0,0,1,.67,3.11,7.16,7.16,0,0,1-.67,3.13,5,5,0,0,1-4.73,2.91,5.39,5.39,0,0,1-1.69-.26,4.87,4.87,0,0,1-1.46-.77,7,7,0,0,1-1.26-1.29l1,0a5.35,5.35,0,0,1-2.12,2.1,6,6,0,0,1-3,.75,5.87,5.87,0,0,1-3.11-.84,5.76,5.76,0,0,1-2.15-2.33A7.32,7.32,0,0,1,75.85,105.51Zm3,0a3.77,3.77,0,0,0,.35,1.67,2.61,2.61,0,0,0,1,1.1,3.09,3.09,0,0,0,1.64.4,3.21,3.21,0,0,0,1.66-.4,2.52,2.52,0,0,0,1-1.11,4.09,4.09,0,0,0,0-3.31,2.52,2.52,0,0,0-1-1.09,3.31,3.31,0,0,0-1.66-.38,3.19,3.19,0,0,0-1.64.38,2.58,2.58,0,0,0-1,1.09A3.77,3.77,0,0,0,78.86,105.51Zm9.1,0a2.87,2.87,0,0,0,.61,1.94,2.17,2.17,0,0,0,1.77.72,2.21,2.21,0,0,0,1.79-.72,3.4,3.4,0,0,0,0-3.86,2.21,2.21,0,0,0-1.79-.71,2.17,2.17,0,0,0-1.77.71A2.85,2.85,0,0,0,88,105.51Z" transform="translate(-24.26 -7.31)"/><path d="M89.22,40.45a7.22,7.22,0,0,0,3.11-2.85,8.34,8.34,0,0,0,1.11-4.36,8.34,8.34,0,0,0-1.11-4.36,7.22,7.22,0,0,0-2.89-2.72,6,6,0,0,0,.64-.18A4.67,4.67,0,0,0,92,24.53a5.16,5.16,0,0,0,1-2.45,9.63,9.63,0,0,0,.09-1.41V13.52h-17v3.2h5.77v3.56l-5.77,2.78v3.62l6.33-3.06a4.69,4.69,0,0,0,.52.9,4.46,4.46,0,0,0,.58.57,9.79,9.79,0,0,0-3.56.94,7.3,7.3,0,0,0-3.12,2.85,8.43,8.43,0,0,0-1.1,4.36,8.43,8.43,0,0,0,1.1,4.36,7.3,7.3,0,0,0,3.12,2.85l.13,0h-4v3H86.23L76.06,48.4v1.13l10.17,4.91H76.06v5.1l3.55,1.07V67l-3.55,1.09v5.35H87.41L76.06,80.78V84h17V80.78H81.74l11.34-7.36V70.18H79.93l13.15-4V61.42l-13.15-4H93.08V54.55L81.78,49l11.3-5.59V40.5h-4ZM84.83,16.72h5.25v3.81A4,4,0,0,1,90,21.61a1.93,1.93,0,0,1-.57,1,2.35,2.35,0,0,1-.91.51,3.6,3.6,0,0,1-1,.15,3.5,3.5,0,0,1-1-.15,2.35,2.35,0,0,1-.91-.51,1.88,1.88,0,0,1-.58-1,4,4,0,0,1-.12-1.08ZM79.42,35.9a4.69,4.69,0,0,1-.69-2.66,4.82,4.82,0,0,1,.74-2.66,4.28,4.28,0,0,1,2-1.62,8.05,8.05,0,0,1,3.09-.54,8.21,8.21,0,0,1,3.12.54,4.29,4.29,0,0,1,2,1.63,4.48,4.48,0,0,1,.69,2.65,4.84,4.84,0,0,1-.73,2.66,4.26,4.26,0,0,1-2,1.62,8.05,8.05,0,0,1-3.09.54,8.16,8.16,0,0,1-3.11-.54A4.36,4.36,0,0,1,79.42,35.9Zm3.19,25.61,7.46,2.26-7.46,2.29Z" transform="translate(-24.26 -7.31)"/></svg>