<svg id="레이어_1" data-name="레이어 1" xmlns="http://www.w3.org/2000/svg" viewBox="0 0 184.99 206.68"><title>blackicon</title><path d="M131.29,48.15a2,2,0,0,0,1.42.58,2,2,0,0,0,1.41-.58,2,2,0,0,0,0-2.83L123.54,34.73h22.67a2,2,0,1,0,0-4H123.54l10.58-10.58a2,2,0,0,0-2.83-2.83l-14,14a2,2,0,0,0,0,2.83Z" transform="translate(-16.53 -16.73)"/><path d="M35.62,48.15a2,2,0,1,0,2.82-2.83L25.86,32.73,38.44,20.15a2,2,0,1,0-2.82-2.83l-14,14a2,2,0,0,0,0,2.83Z" transform="translate(-16.53 -16.73)"/><path d="M172,34.73h22.67L184.11,45.32a2,2,0,0,0,2.82,2.83l14-14a2,2,0,0,0,0-2.83l-14-14a2,2,0,0,0-2.82,2.83l10.58,10.58H172a2,2,0,0,0,0,4Z" transform="translate(-16.53 -16.73)"/><path d="M77.49,48.57a2,2,0,0,0,2.82,0l14-14a2,2,0,0,0,0-2.83l-14-14a2,2,0,0,0-2.82,2.83L90.07,33.15,77.49,45.74A2,2,0,0,0,77.49,48.57Z" transform="translate(-16.53 -16.73)"/><path d="M171.52,92.77a2,2,0,0,0,1.41-.59L183.52,81.6v22.67a2,2,0,1,0,4,0V81.6l10.59,10.58a2,2,0,1,0,2.82-2.82l-14-14a2,2,0,0,0-2.82,0l-14,14a2,2,0,0,0,1.41,3.41Z" transform="translate(-16.53 -16.73)"/><path d="M131.29,105.93a2,2,0,0,0,1.42.59,2,2,0,0,0,1.41-.59l14-14a2,2,0,0,0-2.83-2.82L134.71,99.69V77a2,2,0,0,0-4,0V99.69L120.12,89.11a2,2,0,0,0-2.83,2.82Z" transform="translate(-16.53 -16.73)"/><path d="M70.35,99.52a2,2,0,0,0,1.42-.59L84.35,86.35,96.94,98.93a2,2,0,0,0,1.41.59,2,2,0,0,0,1.42-.59,2,2,0,0,0,0-2.82l-14-14a2,2,0,0,0-2.83,0l-14,14a2,2,0,0,0,1.41,3.41Z" transform="translate(-16.53 -16.73)"/><path d="M48.58,82,36,94.6,23.41,82a2,2,0,0,0-2.83,2.83l14,14a2,2,0,0,0,2.83,0l14-14A2,2,0,0,0,48.58,82Z" transform="translate(-16.53 -16.73)"/><circle cx="66.9" cy="126.89" r="8"/><path d="M69.43,167.62h30v-5.38c0-5.3-4-9.62-9-9.62h-14c-5,0-9,4.32-9,9.62v5.38h2Z" transform="translate(-16.53 -16.73)"/><path d="M129.71,158.8a12.93,12.93,0,0,0,7.65-2.51l7.93,7.93a2,2,0,0,0,1.42.58,2,2,0,0,0,1.41-.58,2,2,0,0,0,0-2.83l-7.93-7.93a12.88,12.88,0,0,0,2.52-7.66,13,13,0,1,0-13,13Zm0-22a9,9,0,1,1-9,9A9,9,0,0,1,129.71,136.8Z" transform="translate(-16.53 -16.73)"/><path d="M174,155.65l7.85,4.36s0,.07,0,.11a6.52,6.52,0,1,0,.8-3.11l-7.1-3.94a6.27,6.27,0,0,0,.3-1.95,6.54,6.54,0,0,0-.44-2.35l7.68-3.84a6.49,6.49,0,1,0-1.24-3.81,7,7,0,0,0,.09,1l-8.26,4.13a6.5,6.5,0,1,0,.33,9.37Zm14.34,1a3.5,3.5,0,1,1-3.5,3.5A3.5,3.5,0,0,1,188.31,156.62Zm0-19a3.5,3.5,0,1,1-3.5,3.5A3.5,3.5,0,0,1,188.31,137.62Zm-19,17a3.5,3.5,0,1,1,3.5-3.5A3.5,3.5,0,0,1,169.31,154.62Z" transform="translate(-16.53 -16.73)"/><path d="M200.64,185.68a2,2,0,0,0-2.78.54L180.5,211.8l-7.34-10.6a2,2,0,1,0-3.28,2.28l9,13,.05.06a1.86,1.86,0,0,0,.23.26l.13.1a.87.87,0,0,0,.11.09l.08,0a2.72,2.72,0,0,0,.35.16l.16.06a2.26,2.26,0,0,0,.51.08h0a2.17,2.17,0,0,0,.51-.08l.16-.06a2,2,0,0,0,.36-.17l.09-.05a.43.43,0,0,0,.1-.09l.13-.1a1.94,1.94,0,0,0,.23-.27s0,0,0-.06l19-28A2,2,0,0,0,200.64,185.68Z" transform="translate(-16.53 -16.73)"/><path d="M147,191.09H118.42a2,2,0,0,0-1.73,3L131,218.84a2,2,0,0,0,1.73,1,2,2,0,0,0,1.73-1l14.29-24.75a2,2,0,0,0-1.73-3Zm-14.29,22.75-10.83-18.75h21.66Z" transform="translate(-16.53 -16.73)"/><path d="M96.42,194.19h-5a1.21,1.21,0,0,0-.05-.18l-2.8-5a.69.69,0,0,0-.59-.37h-7a.68.68,0,0,0-.58.37l-2.8,5a1.21,1.21,0,0,0,0,.18h-5c-2.22,0-4,2.07-4,4.63v17.23c0,2.56,1.8,4.63,4,4.63h24c2.22,0,4-2.07,4-4.63V198.82C100.43,196.26,98.64,194.19,96.42,194.19Zm-12,21.22a8,8,0,1,1,8-8A8,8,0,0,1,84.43,215.41Z" transform="translate(-16.53 -16.73)"/><path d="M84.43,202.46a5,5,0,1,0,5,5A5,5,0,0,0,84.43,202.46Z" transform="translate(-16.53 -16.73)"/><circle cx="10.15" cy="203.53" r="3"/><circle cx="23" cy="203.68" r="3"/><path d="M48.5,198.08c0-.06,0-.12,0-.18l-.06-.19c0-.06,0-.12-.08-.17a1.62,1.62,0,0,0-.1-.18,1.3,1.3,0,0,0-.1-.15,1.83,1.83,0,0,0-.13-.16l-.13-.12-.16-.13-.17-.11-.11-.07-.05,0-.2-.07a1.27,1.27,0,0,0-.18-.06l-.18,0-.22,0H24.27l-2.5-5H16.53v4h2.76L25.1,207a2,2,0,0,0-.23.28h0l-4,6h0l0,.08a1.17,1.17,0,0,0-.15.27l-.06.19c0,.06,0,.12-.05.18a1.63,1.63,0,0,0,0,.31s0,0,0,.08h0a1.72,1.72,0,0,0,0,.39c0,.06,0,.12.05.17l.06.2.09.17a1,1,0,0,0,.1.17.88.88,0,0,0,.12.15c0,.05.08.11.12.15a1.79,1.79,0,0,0,.31.25h0a1.68,1.68,0,0,0,.47.22l.12,0a2.08,2.08,0,0,0,.5.07h20a2,2,0,0,0,0-4H26.27l1.33-2H41.53a2.63,2.63,0,0,0,.49-.06l.12,0a1.89,1.89,0,0,0,.36-.16l.1-.05a2.69,2.69,0,0,0,.37-.3l.07-.09a2.08,2.08,0,0,0,.24-.34l0-.06,5-10,0-.06c0-.06,0-.13.08-.2a1.21,1.21,0,0,0,0-.18,1.13,1.13,0,0,0,0-.18,1.64,1.64,0,0,0,0-.22s0,0,0-.06,0-.07,0-.11S48.51,198.15,48.5,198.08Zm-8.21,8.33h-11l-3-6h17Z" transform="translate(-16.53 -16.73)"/><path d="M44.78,145.62H42.62c-.74-4.56-4-8-7.84-8s-7.1,3.44-7.84,8H24.78a6,6,0,0,0-6,6v18h32v-18A6,6,0,0,0,44.78,145.62Zm-10-4c1.7,0,3.19,1.7,3.76,4H31C31.59,143.32,33.08,141.62,34.78,141.62Zm12,24h-24v-14a2,2,0,0,1,2-2h2v7a2,2,0,0,0,4,0v-7h8v7a2,2,0,0,0,4,0v-7h2a2,2,0,0,1,2,2Z" transform="translate(-16.53 -16.73)"/></svg>