<?xml version="1.0" encoding="iso-8859-1"?>
<!-- Generator: Adobe Illustrator 24.0.1, SVG Export Plug-In . SVG Version: 6.00 Build 0)  -->
<svg version="1.1" id="&#xB808;&#xC774;&#xC5B4;_1" xmlns="http://www.w3.org/2000/svg" xmlns:xlink="http://www.w3.org/1999/xlink"
	 x="0px" y="0px" viewBox="0 0 1080 1080" style="enable-background:new 0 0 1080 1080;" xml:space="preserve">
<g>
	<g>
		<path d="M539.999,840.501c-125.262,0-243.198-30.643-332.086-86.283C117.236,697.457,67.299,621.38,67.299,540.001
			c0-81.378,49.937-157.456,140.614-214.216c88.888-55.642,206.826-86.286,332.086-86.286s243.198,30.643,332.087,86.286
			c90.678,56.761,140.615,132.838,140.615,214.216c0,81.379-49.939,157.456-140.615,214.217
			C783.197,809.858,665.26,840.501,539.999,840.501z M539.999,263.788c-120.83,0-234.254,29.346-319.378,82.631
			C137.285,398.585,91.39,467.333,91.39,540.001s45.895,141.416,129.23,193.581c85.124,53.286,198.548,82.631,319.378,82.631
			s234.255-29.346,319.378-82.631c83.336-52.165,129.23-120.913,129.23-193.581c0-72.666-45.895-141.416-129.23-193.582
			C774.254,293.133,660.828,263.788,539.999,263.788z"/>
	</g>
	<g>
		<path d="M530.789,740.626c3.661,4.404,5.195,9.403,5.195,16.306c0,7.498-2.715,14.284-7.793,19.045
			c-7.202,6.903-19.244,10.594-34.002,10.594c-14.994,0-27.155-3.928-34.238-10.951c-4.723-4.642-7.203-11.189-7.203-18.688
			c0-8.213,3.069-14.76,9.091-19.52c3.659-2.856,6.73-4.285,12.396-5.476c-5.903-1.904-8.619-3.332-11.451-6.547
			c-3.66-3.928-5.667-9.284-5.667-15.235c0-6.19,1.654-11.545,4.842-15.592c6.257-7.736,17.945-12.14,32.349-12.14
			c22.905,0,37.427,10.475,37.427,27.019c0,11.308-5.431,18.568-16.646,22.496C522.524,733.247,526.894,735.627,530.789,740.626z
			 M477.069,754.909c0,7.736,6.494,12.378,17.238,12.378c10.98,0,17.238-4.642,17.238-12.617s-6.375-12.617-17.001-12.617
			C483.681,742.055,477.069,746.935,477.069,754.909z M480.494,711.703c0,6.546,5.431,10.713,14.049,10.713
			c8.501,0,13.695-4.047,13.695-10.713c0-6.427-5.313-10.475-13.814-10.475C485.925,701.228,480.494,705.275,480.494,711.703z"/>
		<path d="M622.058,740.626c3.661,4.404,5.195,9.403,5.195,16.306c0,7.498-2.715,14.284-7.793,19.045
			c-7.202,6.903-19.244,10.594-34.002,10.594c-14.994,0-27.155-3.928-34.238-10.951c-4.723-4.642-7.203-11.189-7.203-18.688
			c0-8.213,3.069-14.76,9.091-19.52c3.659-2.856,6.73-4.285,12.396-5.476c-5.903-1.904-8.619-3.332-11.451-6.547
			c-3.661-3.928-5.667-9.284-5.667-15.235c0-6.19,1.654-11.545,4.842-15.592c6.257-7.736,17.945-12.14,32.349-12.14
			c22.905,0,37.427,10.475,37.427,27.019c0,11.308-5.431,18.568-16.646,22.496C613.795,733.247,618.163,735.627,622.058,740.626z
			 M568.34,754.909c0,7.736,6.494,12.378,17.238,12.378c10.98,0,17.238-4.642,17.238-12.617s-6.375-12.617-17.001-12.617
			C574.951,742.055,568.34,746.935,568.34,754.909z M571.763,711.703c0,6.546,5.431,10.713,14.049,10.713
			c8.501,0,13.695-4.047,13.695-10.713c0-6.427-5.313-10.475-13.814-10.475C577.194,701.228,571.763,705.275,571.763,711.703z"/>
	</g>
	<g>
		<path d="M273.275,508.772c-10.749-11.819-35.172-29.55-53.086-41.042l28.009-32.176c17.587,9.849,42.664,25.609,55.041,37.101
			L273.275,508.772z M311.705,541.277c-12.05,35.459-26.382,71.576-41.037,105.067l-43.315-27.252
			c13.353-25.61,31.591-66.323,45.594-105.395L311.705,541.277z M281.417,428.001c-8.793-12.804-28.66-31.848-44.292-44.98
			l31.917-28.894c15.306,11.819,36.477,29.55,46.248,41.698L281.417,428.001z M520.792,559.994
			c-12.05,9.193-26.706,18.385-40.059,26.266c14.004,11.163,31.266,19.699,52.435,24.953c-10.422,9.521-23.449,28.564-29.637,41.37
			c-59.599-20.028-88.912-61.07-107.8-122.797h-30.939v64.025l50.154-13.462c0.978,12.806,4.233,31.193,7.165,41.37
			c-74.257,22.655-88.585,28.564-97.705,35.131c-4.233-9.85-16.935-27.581-24.426-34.475c8.143-6.895,17.263-20.356,17.263-39.071
			V376.782h74.254c-2.932-8.865-6.189-18.387-9.444-26.266l43.966-10.507c5.211,11.163,11.074,25.281,14.655,36.773h67.417v153.003
			h-15.633L520.792,559.994z M364.791,417.495v16.089h97.053v-16.089H364.791z M364.791,489.071h97.053v-16.087h-97.053V489.071z
			 M440.675,529.785c3.909,9.521,8.143,18.387,13.354,26.596c12.376-7.881,26.055-18.059,35.826-26.596H440.675z"/>
		<path d="M604.801,512.713c-12.05-13.135-39.081-32.179-58.948-44.983l28.009-32.505c19.539,11.163,47.224,28.564,60.903,41.042
			L604.801,512.713z M646.163,549.486c-15.96,33.818-34.197,68.621-52.435,100.797l-40.71-31.19
			c16.284-23.969,39.082-63.04,57.646-100.47L646.163,549.486z M624.016,427.675c-12.375-13.134-40.383-32.179-61.227-44.654
			l28.009-32.835c20.517,10.836,49.177,28.238,63.182,41.042L624.016,427.675z M844.829,546.857
			c-12.05,23.642-28.986,42.356-49.503,57.459c19.542,5.253,41.037,8.865,64.485,11.163c-9.771,9.521-21.821,28.566-28.009,40.714
			c-33.22-4.597-62.531-12.478-87.934-23.969c-27.357,10.836-58.297,18.387-91.191,23.64c-3.907-11.492-13.352-30.207-20.844-40.057
			c23.125-2.626,45.27-6.239,65.463-11.822c-12.376-9.85-23.449-21.013-33.22-33.818h-16.935v-36.773h159.909l7.818-1.642
			L844.829,546.857z M651.374,452.956h194.758v71.906H651.374V452.956z M831.801,443.761H669.286v-91.933h162.515V443.761z
			 M691.108,496.953h14.331v-16.089h-14.331V496.953z M785.231,378.094h-71.65v7.224h71.65V378.094z M785.231,409.944h-71.65v7.551
			h71.65V409.944z M720.418,570.171c7.492,5.909,15.96,11.163,25.404,16.089c9.444-4.927,17.912-10.18,25.404-16.089H720.418z
			 M740.285,496.953h14.331v-16.089h-14.331V496.953z M789.464,496.953h14.655v-16.089h-14.655V496.953z"/>
	</g>
</g>
</svg>
