<svg id="레이어_1" data-name="레이어 1" xmlns="http://www.w3.org/2000/svg" viewBox="0 0 32 32"><defs><style>.cls-1{fill:#fff;}</style></defs><title>naver</title><path d="M20,4A16,16,0,1,0,36,20,16,16,0,0,0,20,4Zm6.55,20.94a1.5,1.5,0,0,1-1.71,1.69,2.66,2.66,0,0,1-.77-.1,1.92,1.92,0,0,1-.64-.32,2.92,2.92,0,0,1-.55-.51q-.25-.28-.51-.6l-5.95-7.47v7.52A1.41,1.41,0,0,1,16,26.26a1.53,1.53,0,0,1-1.07.37,1.46,1.46,0,0,1-1.07-.38,1.4,1.4,0,0,1-.41-1.1v-9.9a2.41,2.41,0,0,1,.17-1,1.54,1.54,0,0,1,.67-.64,2.11,2.11,0,0,1,1-.25,2.24,2.24,0,0,1,.73.11,1.85,1.85,0,0,1,.53.31,2.55,2.55,0,0,1,.47.5l.5.63,6.1,7.57V14.85A1.47,1.47,0,0,1,24,13.74a1.43,1.43,0,0,1,1-.37,1.52,1.52,0,0,1,1.08.37,1.47,1.47,0,0,1,.39,1.11Z" transform="translate(-4 -4)"/><path class="cls-1" d="M25.08,13.37a1.43,1.43,0,0,0-1,.37,1.47,1.47,0,0,0-.39,1.11v7.64l-6.1-7.57-.5-.63a2.55,2.55,0,0,0-.47-.5,1.85,1.85,0,0,0-.53-.31,2.24,2.24,0,0,0-.73-.11,2.11,2.11,0,0,0-1,.25,1.54,1.54,0,0,0-.67.64,2.41,2.41,0,0,0-.17,1v9.9a1.4,1.4,0,0,0,.41,1.1,1.46,1.46,0,0,0,1.07.38A1.53,1.53,0,0,0,16,26.26a1.41,1.41,0,0,0,.42-1.11V17.63l5.95,7.47q.25.31.51.6a2.92,2.92,0,0,0,.55.51,1.92,1.92,0,0,0,.64.32,2.66,2.66,0,0,0,.77.1,1.5,1.5,0,0,0,1.71-1.69V14.85a1.47,1.47,0,0,0-.39-1.11A1.52,1.52,0,0,0,25.08,13.37Z" transform="translate(-4 -4)"/></svg>