<svg id="레이어_1" data-name="레이어 1" xmlns="http://www.w3.org/2000/svg" viewBox="0 0 32 10"><title>watermark4</title><path d="M9.76,25H5.09L4,24.09V16.15L5.35,15H9.91L11,16v8Zm-3.1-8.2-.36.31v6.15H8.35l.4-.33V16.8Z" transform="translate(-4 -15)"/><path d="M17.07,25H12.39l-1.08-.91V16.15L12.65,15h4.57l1.11,1v8ZM14,16.8l-.37.31v6.15h2.06l.39-.33V16.8Z" transform="translate(-4 -15)"/><path d="M19,19V17h2v2Zm0,4V21h2v2Z" transform="translate(-4 -15)"/><path d="M23.13,25,22,24V20.4l.86-.86-.81-.84V16.17L23.41,15h4.44l1.15.91V18.7l-.83.84.83.86v3.5L27.63,25Zm1.13-4.32v2.53h2.17l.36-.28V20.68Zm0-3.71v1.75h2.44v-2H24.59Z" transform="translate(-4 -15)"/><path d="M30.35,25l-1.09-1V20.4l.83-.86-.79-.84V16.17L30.62,15H34.9l1.1.91V18.7l-.8.84.8.86v3.5L34.69,25Zm1.08-4.32v2.53h2.09l.35-.28V20.68Zm0-3.71v1.75h2.36v-2H31.75Z" transform="translate(-4 -15)"/></svg>