<svg id="레이어_1" data-name="레이어 1" xmlns="http://www.w3.org/2000/svg" viewBox="0 0 21.56 104.83"><title>watermark2</title><path d="M49.22,91.16a7.87,7.87,0,0,1,.83-3.64A6.28,6.28,0,0,1,52.38,85a6.37,6.37,0,0,1,3.38-.91,6.54,6.54,0,0,1,3.19.8,6.05,6.05,0,0,1,2.33,2.3l-1.11-.07a7,7,0,0,1,1.35-1.37,5.34,5.34,0,0,1,1.58-.84,5.75,5.75,0,0,1,1.83-.29,5.64,5.64,0,0,1,3.08.84,5.47,5.47,0,0,1,2,2.31,8.19,8.19,0,0,1,0,6.76,5.49,5.49,0,0,1-2,2.32,5.64,5.64,0,0,1-3.08.84,6.06,6.06,0,0,1-1.84-.28,5.42,5.42,0,0,1-1.57-.84,7.06,7.06,0,0,1-1.38-1.4h1.13A5.93,5.93,0,0,1,59,97.45a6.54,6.54,0,0,1-3.21.81,6.24,6.24,0,0,1-5.71-3.44A8,8,0,0,1,49.22,91.16Zm3.26,0a4,4,0,0,0,.38,1.8A2.92,2.92,0,0,0,54,94.16a3.41,3.41,0,0,0,1.79.43,3.46,3.46,0,0,0,1.79-.43A2.79,2.79,0,0,0,58.67,93a4.41,4.41,0,0,0,0-3.58,2.74,2.74,0,0,0-1.12-1.19,3.56,3.56,0,0,0-1.79-.41,3.51,3.51,0,0,0-1.79.41,2.84,2.84,0,0,0-1.11,1.19A4,4,0,0,0,52.48,91.16Zm9.86,0a3.14,3.14,0,0,0,.66,2.1,2.42,2.42,0,0,0,1.93.77,2.39,2.39,0,0,0,1.93-.77,3.66,3.66,0,0,0,0-4.19,2.39,2.39,0,0,0-1.93-.77,2.42,2.42,0,0,0-1.93.77A3.14,3.14,0,0,0,62.34,91.16Z" transform="translate(-49.22 -7.59)"/><path d="M49.22,105.31a7.83,7.83,0,0,1,.83-3.63,6.37,6.37,0,0,1,2.33-2.52,6.45,6.45,0,0,1,3.38-.9,6.53,6.53,0,0,1,3.19.79,6.15,6.15,0,0,1,2.33,2.31l-1.11-.07a6.76,6.76,0,0,1,1.35-1.37,5.34,5.34,0,0,1,1.58-.84,6.05,6.05,0,0,1,4.91.54,5.55,5.55,0,0,1,2,2.32,7.46,7.46,0,0,1,.73,3.37,7.54,7.54,0,0,1-.73,3.39A5.49,5.49,0,0,1,68,111a5.64,5.64,0,0,1-3.08.84,5.77,5.77,0,0,1-1.84-.29,5.16,5.16,0,0,1-1.57-.83,7.64,7.64,0,0,1-1.38-1.4l1.13,0A5.93,5.93,0,0,1,59,111.6a6.54,6.54,0,0,1-3.21.81A6.24,6.24,0,0,1,50.05,109,7.92,7.92,0,0,1,49.22,105.31Zm3.26,0a4.09,4.09,0,0,0,.38,1.81,2.92,2.92,0,0,0,1.11,1.2,3.41,3.41,0,0,0,1.79.43,3.46,3.46,0,0,0,1.79-.43,2.79,2.79,0,0,0,1.12-1.21,3.94,3.94,0,0,0,.38-1.8,3.86,3.86,0,0,0-.38-1.78,2.69,2.69,0,0,0-1.12-1.19,3.56,3.56,0,0,0-1.79-.42,3.51,3.51,0,0,0-1.79.42,2.78,2.78,0,0,0-1.11,1.19A4,4,0,0,0,52.48,105.31Zm9.86,0a3.11,3.11,0,0,0,.66,2.1,2.4,2.4,0,0,0,1.93.78,2.37,2.37,0,0,0,1.93-.78,3.64,3.64,0,0,0,0-4.18,2.37,2.37,0,0,0-1.93-.78,2.4,2.4,0,0,0-1.93.78A3.11,3.11,0,0,0,62.34,105.31Z" transform="translate(-49.22 -7.59)"/><path d="M65,36.78a7.94,7.94,0,0,0,3.37-3.09A9.09,9.09,0,0,0,69.61,29a9,9,0,0,0-1.2-4.72,7.81,7.81,0,0,0-3.13-2.95,7,7,0,0,0,.69-.2,4.9,4.9,0,0,0,2.08-1.57,5.46,5.46,0,0,0,1.07-2.66,9.61,9.61,0,0,0,.11-1.53V7.59H50.77v3.46H57v3.87l-6.26,3v3.92l6.87-3.32a4.71,4.71,0,0,0,.56,1,4.61,4.61,0,0,0,.63.62,10.63,10.63,0,0,0-3.87,1,7.82,7.82,0,0,0-3.37,3.09A9,9,0,0,0,50.39,29a9.09,9.09,0,0,0,1.2,4.73A7.94,7.94,0,0,0,55,36.78l.14,0H50.77v3.24h11l-11,5.32v1.23l11,5.32h-11v5.53l3.85,1.16v6.91l-3.85,1.18v5.8H63.08l-12.31,8V84H69.23V80.5H56.92l12.31-8V69H55l14.26-4.33V59.51L55,55.18H69.23V52.07L57,46l12.25-6.07V36.83H64.9ZM60.28,11.05H66v4.13a4.2,4.2,0,0,1-.13,1.17,2.07,2.07,0,0,1-.62,1,2.48,2.48,0,0,1-1,.56,4.25,4.25,0,0,1-1.11.16A4.14,4.14,0,0,1,62,18a2.59,2.59,0,0,1-1-.56,2.14,2.14,0,0,1-.62-1,4.61,4.61,0,0,1-.13-1.17ZM54.42,31.84A4.92,4.92,0,0,1,53.67,29a5.28,5.28,0,0,1,.79-2.88,4.73,4.73,0,0,1,2.19-1.75A8.54,8.54,0,0,1,60,23.74a8.73,8.73,0,0,1,3.38.59,4.7,4.7,0,0,1,2.2,1.75A4.92,4.92,0,0,1,66.33,29a5.34,5.34,0,0,1-.79,2.89,4.74,4.74,0,0,1-2.19,1.75,8.73,8.73,0,0,1-3.35.58,8.92,8.92,0,0,1-3.38-.58A4.72,4.72,0,0,1,54.42,31.84Zm3.45,27.77L66,62.06l-8.09,2.48Z" transform="translate(-49.22 -7.59)"/></svg>