<svg id="레이어_1" data-name="레이어 1" xmlns="http://www.w3.org/2000/svg" viewBox="0 0 223.28 249.46"><defs><style>.cls-1{fill:#fff;}</style></defs><title>whiteicon2</title><rect width="223.28" height="249.46"/><path class="cls-1" d="M135.42,53.64a2,2,0,0,0,2.83-2.83L127.69,40.23h22.67a2,2,0,0,0,0-4H127.69l10.59-10.59a2,2,0,1,0-2.86-2.83l-14,14a2,2,0,0,0,0,2.83h0Z"/><path class="cls-1" d="M39.77,53.64a2,2,0,0,0,2.83-2.83L30,38.23,42.6,25.64a2,2,0,0,0-2.83-2.83h0l-14,14a2,2,0,0,0,0,2.83h0Z"/><path class="cls-1" d="M176.17,40.23h22.68L188.26,50.81a2,2,0,0,0,2.83,2.83l14-14a2,2,0,0,0,0-2.83h0l-14-14a2,2,0,0,0-2.83,2.83h0l10.59,10.59H176.17a2,2,0,0,0,0,4Z"/><path class="cls-1" d="M81.64,54.06a2,2,0,0,0,2.83,0h0l14-14a2,2,0,0,0,0-2.83h0l-14-14a2,2,0,0,0-2.83,2.83L94.23,38.65,81.64,51.23a2,2,0,0,0,0,2.83Z"/><path class="cls-1" d="M175.67,98.26a2,2,0,0,0,1.42-.59l10.58-10.58v22.67a2,2,0,1,0,4,0V87.09l10.59,10.58a2,2,0,0,0,2.83,0h0a2,2,0,0,0,0-2.82l-14-14a2,2,0,0,0-2.83,0h0l-14,14a2,2,0,0,0,1.41,3.41Z"/><path class="cls-1" d="M135.42,111.42a2,2,0,0,0,2.83,0h0l14-14a2,2,0,0,0-2.83-2.82l-10.56,10.58V82.51a2,2,0,1,0-4,0v22.67L124.28,94.6a2,2,0,1,0-2.86,2.82h0Z"/><path class="cls-1" d="M74.51,105a2,2,0,0,0,1.41-.59L88.51,91.84l12.58,12.58a2,2,0,0,0,2.83-2.82l-14-14a2,2,0,0,0-2.83,0h0l-14,14A2,2,0,0,0,74.51,105Z"/><path class="cls-1" d="M52.74,87.51,40.15,100.09,27.57,87.51a2,2,0,1,0-3,2.68l.14.14,14,14a2,2,0,0,0,1.41.59,2,2,0,0,0,1.42-.59l14-14a2,2,0,0,0-2.83-2.82Z"/><circle class="cls-1" cx="87.58" cy="149.12" r="8"/><path class="cls-1" d="M73.59,173.11h30v-5.38c0-5.3-4-9.62-9-9.62h-14c-5,0-9,4.32-9,9.62v5.38Z"/><path class="cls-1" d="M133.86,164.29a12.94,12.94,0,0,0,7.66-2.51l7.93,7.93a2,2,0,0,0,2.83,0h0a2,2,0,0,0,0-2.83h0l-7.93-8a13,13,0,1,0-10.49,5.34Zm0-22a9,9,0,1,1-9,9A9,9,0,0,1,133.86,142.29Z"/><path class="cls-1" d="M178.12,161.14,186,165.5v.11a6.49,6.49,0,1,0,.79-3.11l-7.09-3.94a6.41,6.41,0,0,0-.15-4.3l7.69-3.84a6.49,6.49,0,1,0-1.24-3.81,5.63,5.63,0,0,0,.09,1l-8.27,4.13a6.5,6.5,0,1,0,.33,9.37Zm14.35,1a3.5,3.5,0,1,1-3.5,3.5,3.5,3.5,0,0,1,3.5-3.5h0Zm0-19a3.5,3.5,0,1,1-3.5,3.5,3.5,3.5,0,0,1,3.5-3.5h0Zm-19,17a3.5,3.5,0,1,1,3.5-3.5,3.5,3.5,0,0,1-3.5,3.5Z"/><path class="cls-1" d="M204.8,191.17a2,2,0,0,0-2.78.53h0l-17.36,25.58-7.34-10.6A2,2,0,1,0,174,209l9,13V222a2,2,0,0,0,.24.26l.12.1.11.1h.09a2.21,2.21,0,0,0,.35.16l.16.06a1.81,1.81,0,0,0,.51.08h0a1.82,1.82,0,0,0,.52-.08l.16-.06.35-.17h.09l.11-.08.12-.11a1.55,1.55,0,0,0,.24-.27V222l19-28A2,2,0,0,0,204.8,191.17Z"/><path class="cls-1" d="M151.15,196.58H122.57a2,2,0,0,0-1.73,3l14.29,24.75a2,2,0,0,0,2.73.74,2,2,0,0,0,.74-.74l14.29-24.75a2,2,0,0,0,0-2A2,2,0,0,0,151.15,196.58Zm-14.29,22.75L126,200.58h21.65Z"/><path class="cls-1" d="M100.57,199.69h-5a.61.61,0,0,0,0-.19l-2.8-5a.67.67,0,0,0-.58-.37h-7a.65.65,0,0,0-.58.37l-2.8,5a.6.6,0,0,0-.06.19h-5c-2.21,0-4,2.07-4,4.62v17.23c0,2.56,1.8,4.63,4,4.63h24c2.22,0,4-2.07,4-4.63V204.31C104.59,201.76,102.79,199.69,100.57,199.69Zm-12,21.23a8,8,0,1,1,8-8A8,8,0,0,1,88.59,220.92Z"/><path class="cls-1" d="M88.59,207.92a5,5,0,1,0,5,5A5,5,0,0,0,88.59,207.92Z"/><circle class="cls-1" cx="30.83" cy="225.76" r="3"/><circle class="cls-1" cx="43.68" cy="225.91" r="3"/><path class="cls-1" d="M52.65,203.57a.54.54,0,0,0,0-.18l-.06-.19a.89.89,0,0,0-.08-.17l-.09-.18-.1-.15-.14-.15a.8.8,0,0,0-.13-.13l-.15-.13-.18-.11-.1-.07h-.06l-.2-.07-.18-.06H28.42l-2.5-5H20.68v4h2.74l5.8,11.61a3.11,3.11,0,0,0-.23.28h0l-4,6h0V219a1.71,1.71,0,0,0-.14.27l-.06.19-.06.18V220h0a2.54,2.54,0,0,0,0,.39l.06.18a1.14,1.14,0,0,0,.15.36l.09.18.12.15.13.15a3.61,3.61,0,0,0,.3.25h0a1.62,1.62,0,0,0,.46.22h.12a2.24,2.24,0,0,0,.51.07h20a2,2,0,1,0,0-4H30.42l1.33-2H45.68a2,2,0,0,0,.49-.06h.12a1.94,1.94,0,0,0,.36-.15l.1-.06a2.2,2.2,0,0,0,.37-.3l.07-.09a2.62,2.62,0,0,0,.24-.34v-.06l5-10v-.06a1,1,0,0,1,.07-.2l.06-.18v-.18a.81.81,0,0,0,0-.22v-.11a.2.2,0,0,0,0-.11A1.17,1.17,0,0,0,52.65,203.57Zm-8.23,8.35h-11l-3-6h17Z"/><path class="cls-1" d="M48.93,151.11H46.77c-.74-4.56-4-8-7.84-8s-7.09,3.44-7.83,8H28.93a6,6,0,0,0-6,6v18h32v-18a6,6,0,0,0-6-6Zm-10-4c1.71,0,3.2,1.7,3.76,4H35.18C35.74,148.81,37.23,147.11,38.93,147.11Zm12,24h-24v-14a2,2,0,0,1,2-2h2v7a2,2,0,0,0,4,0v-7h8v7a2,2,0,0,0,4,0v-7h2a2,2,0,0,1,2,2Z"/></svg>