<svg id="레이어_1" data-name="레이어 1" xmlns="http://www.w3.org/2000/svg" viewBox="0 0 184.99 206.68"><defs><style>.cls-1{fill:#fff;}</style></defs><title>whiteicon</title><path class="cls-1" d="M132,46.72a2,2,0,0,0,2.83-2.83L124.27,33.31h22.67a2,2,0,0,0,0-4H124.27l10.59-10.59A2,2,0,0,0,132,15.89l-14,14a2,2,0,0,0,0,2.83Z" transform="translate(-17.26 -15.31)"/><path class="cls-1" d="M36.35,46.72a2,2,0,0,0,2.83-2.83L26.59,31.31,39.18,18.72a2,2,0,0,0-2.83-2.83l-14,14a2,2,0,0,0,0,2.83Z" transform="translate(-17.26 -15.31)"/><path class="cls-1" d="M172.75,33.31h22.68L184.84,43.89a2,2,0,1,0,2.83,2.83l14-14a2,2,0,0,0,0-2.83l-14-14a2,2,0,0,0-2.83,2.83l10.59,10.59H172.75a2,2,0,1,0,0,4Z" transform="translate(-17.26 -15.31)"/><path class="cls-1" d="M78.22,47.14a2,2,0,0,0,2.83,0l14-14a2,2,0,0,0,0-2.83l-14-14a2,2,0,1,0-2.83,2.83L90.81,31.73,78.22,44.31A2,2,0,0,0,78.22,47.14Z" transform="translate(-17.26 -15.31)"/><path class="cls-1" d="M172.25,91.34a2,2,0,0,0,1.42-.59l10.58-10.58v22.67a2,2,0,1,0,4,0V80.17l10.59,10.58a2,2,0,0,0,2.83,0,2,2,0,0,0,0-2.82l-14-14a2,2,0,0,0-2.83,0l-14,14a2,2,0,0,0,0,2.82A2,2,0,0,0,172.25,91.34Z" transform="translate(-17.26 -15.31)"/><path class="cls-1" d="M132,104.5a2,2,0,0,0,2.83,0l14-14A2,2,0,0,0,146,87.68L135.44,98.26V75.59a2,2,0,0,0-4,0V98.26L120.86,87.68A2,2,0,1,0,118,90.5Z" transform="translate(-17.26 -15.31)"/><path class="cls-1" d="M71.09,98.09a2,2,0,0,0,1.41-.59L85.09,84.92,97.67,97.5a2,2,0,0,0,1.42.59,2,2,0,0,0,1.41-.59,2,2,0,0,0,0-2.82l-14-14a2,2,0,0,0-2.83,0l-14,14a2,2,0,0,0,1.42,3.41Z" transform="translate(-17.26 -15.31)"/><path class="cls-1" d="M49.32,80.59,36.73,93.17,24.15,80.59a2,2,0,1,0-2.83,2.82l14,14a2,2,0,0,0,1.41.59,2,2,0,0,0,1.42-.59l14-14a2,2,0,0,0-2.83-2.82Z" transform="translate(-17.26 -15.31)"/><circle class="cls-1" cx="66.9" cy="126.89" r="8"/><path class="cls-1" d="M70.17,166.19h30v-5.38c0-5.3-4-9.62-9-9.62h-14c-5,0-9,4.32-9,9.62v5.38h2Z" transform="translate(-17.26 -15.31)"/><path class="cls-1" d="M130.44,157.37a12.94,12.94,0,0,0,7.66-2.51l7.93,7.93a2,2,0,0,0,2.83,0,2,2,0,0,0,0-2.83L140.93,152a13,13,0,1,0-10.49,5.34Zm0-22a9,9,0,1,1-9,9A9,9,0,0,1,130.44,135.37Z" transform="translate(-17.26 -15.31)"/><path class="cls-1" d="M174.7,154.22l7.85,4.36v.11a6.49,6.49,0,1,0,.79-3.11l-7.09-3.94a6.42,6.42,0,0,0-.15-4.3l7.69-3.84a6.49,6.49,0,1,0-1.24-3.81,5.8,5.8,0,0,0,.09,1l-8.27,4.13a6.5,6.5,0,1,0,.33,9.37Zm14.35,1a3.5,3.5,0,1,1-3.5,3.5A3.5,3.5,0,0,1,189.05,155.19Zm0-19a3.5,3.5,0,1,1-3.5,3.5A3.5,3.5,0,0,1,189.05,136.19Zm-19,17a3.5,3.5,0,1,1,3.5-3.5A3.5,3.5,0,0,1,170.05,153.19Z" transform="translate(-17.26 -15.31)"/><path class="cls-1" d="M201.38,184.25a2,2,0,0,0-2.78.54l-17.36,25.58-7.34-10.6a2,2,0,0,0-3.29,2.28l9,13,0,.06a2,2,0,0,0,.24.26l.12.1.11.1.09,0a2.21,2.21,0,0,0,.35.16.76.76,0,0,0,.16.06,1.7,1.7,0,0,0,.51.08h0a1.82,1.82,0,0,0,.52-.08l.16-.06a2.26,2.26,0,0,0,.35-.17l.09,0,.11-.08.12-.11a1.55,1.55,0,0,0,.24-.27l0-.06,19-28A2,2,0,0,0,201.38,184.25Z" transform="translate(-17.26 -15.31)"/><path class="cls-1" d="M147.73,189.66H119.15a2,2,0,0,0-1.73,1,2,2,0,0,0,0,2l14.29,24.75a2,2,0,0,0,3.47,0l14.29-24.75a2,2,0,0,0,0-2A2,2,0,0,0,147.73,189.66Zm-14.29,22.75-10.82-18.75h21.65Z" transform="translate(-17.26 -15.31)"/><path class="cls-1" d="M97.15,192.77H92.1a1.05,1.05,0,0,0,0-.19l-2.8-5a.68.68,0,0,0-.58-.37h-7a.66.66,0,0,0-.58.37l-2.8,5a.6.6,0,0,0-.06.19h-5c-2.21,0-4,2.07-4,4.62v17.23c0,2.56,1.8,4.63,4,4.63h24c2.22,0,4-2.07,4-4.63V197.39C101.17,194.84,99.37,192.77,97.15,192.77ZM85.17,214a8,8,0,1,1,8-8A8,8,0,0,1,85.17,214Z" transform="translate(-17.26 -15.31)"/><path class="cls-1" d="M85.17,201a5,5,0,1,0,5,5A5,5,0,0,0,85.17,201Z" transform="translate(-17.26 -15.31)"/><circle class="cls-1" cx="10.15" cy="203.53" r="3"/><circle class="cls-1" cx="23" cy="203.68" r="3"/><path class="cls-1" d="M49.23,196.65a1.16,1.16,0,0,0,0-.18l-.06-.19a.89.89,0,0,0-.08-.17l-.09-.18-.1-.15-.14-.15a.8.8,0,0,0-.13-.13l-.15-.13-.18-.11-.1-.07-.06,0-.2-.07-.18-.06-.18,0-.22,0H25l-2.5-5H17.26v4H20l5.8,11.61a3.11,3.11,0,0,0-.23.28h0l-4,6h0l0,.08a1.71,1.71,0,0,0-.14.27,1.06,1.06,0,0,0-.06.19l-.06.18c0,.11,0,.21,0,.31s0,.06,0,.08h0a2.56,2.56,0,0,0,0,.39l.06.18a1.08,1.08,0,0,0,.15.36,1.51,1.51,0,0,0,.09.18l.12.15.13.15a2.48,2.48,0,0,0,.3.25h0a1.62,1.62,0,0,0,.46.22l.12,0a2.16,2.16,0,0,0,.51.07h20a2,2,0,1,0,0-4H27l1.33-2H42.26a1.93,1.93,0,0,0,.49-.06l.12,0a1.94,1.94,0,0,0,.36-.15l.1-.06a2.2,2.2,0,0,0,.37-.3l.07-.09a2.08,2.08,0,0,0,.24-.34l0-.06,5-10,0-.06c0-.06.05-.13.07-.2l.06-.18,0-.18a1.64,1.64,0,0,0,0-.22V197a.45.45,0,0,0,0-.11A1.64,1.64,0,0,0,49.23,196.65ZM41,205H30l-3-6H44Z" transform="translate(-17.26 -15.31)"/><path class="cls-1" d="M45.51,144.19H43.35c-.74-4.56-4-8-7.84-8s-7.09,3.44-7.83,8H25.51a6,6,0,0,0-6,6v18h32v-18A6,6,0,0,0,45.51,144.19Zm-10-4c1.71,0,3.2,1.7,3.76,4H31.76C32.32,141.89,33.81,140.19,35.51,140.19Zm12,24h-24v-14a2,2,0,0,1,2-2h2v7a2,2,0,0,0,4,0v-7h8v7a2,2,0,0,0,4,0v-7h2a2,2,0,0,1,2,2Z" transform="translate(-17.26 -15.31)"/></svg>